<svg width="40" height="48" viewBox="0 0 40 48" fill="none" xmlns="http://www.w3.org/2000/svg">
<path d="M19.9998 38.7062L8.56567 27.2265L19.9998 15.7468L31.434 27.2265L19.9998 38.7062ZM12.9985 27.2265L19.9998 34.2557L27.0011 27.2265L19.9998 20.1973L12.9985 27.2265Z" fill="black"/>
<path d="M9.21753 31.0228V4.92188L22.2162 17.9723L9.21753 31.0228ZM12.3466 12.5139V23.4307L17.7834 17.9723L12.3466 12.5139Z" fill="black"/>
<path d="M30.7819 31.0228L17.7832 17.9723L30.7819 4.92188V31.0228ZM22.2161 17.9723L27.6528 23.4307V12.5139L22.2161 17.9723Z" fill="black"/>
<path d="M29.2174 47.9606L17.7832 36.4809L39.9996 14.176V37.1354L29.2174 47.9606ZM22.2161 36.4809L29.2174 43.5101L36.2187 36.4809L29.2174 29.4517L22.2161 36.4809ZM31.4338 27.2265L36.8706 32.6849V21.755L31.4338 27.2265Z" fill="black"/>
<path d="M10.7823 47.9606L0 37.1354V14.176L22.2164 36.4809L10.7823 47.9606ZM3.78096 36.4809L10.7823 43.5101L17.7836 36.4809L10.7823 29.4517L3.78096 36.4809ZM3.12907 21.7681V32.698L8.56584 27.2265L3.12907 21.7681Z" fill="black"/>
<path d="M21.5646 36.481H18.4355V47.9868H21.5646V36.481Z" fill="black"/>
<path d="M24.0545 13.3253L19.9997 6.28306L16.2318 12.8279L13.533 11.2572L19.9997 0L26.7663 11.7546L24.0545 13.3253Z" fill="black"/>
</svg>
