<svg width="18" height="20" viewBox="0 0 18 20" fill="none" xmlns="http://www.w3.org/2000/svg">
<path fill-rule="evenodd" clip-rule="evenodd" d="M13.2836 12.2674C15.5242 9.64091 15.608 5.70489 13.3151 2.97224C10.759 -0.0738944 6.2176 -0.471219 3.17146 2.08479C0.125324 4.64081 -0.272 9.18225 2.28401 12.2284C4.57746 14.9616 8.46938 15.5623 11.4453 13.8104L16.1379 19.4028L17.9764 17.8601L13.2836 12.2674ZM11.4762 4.51502C13.1802 6.54577 12.9153 9.5734 10.8845 11.2774C8.85378 12.9814 5.82616 12.7165 4.12215 10.6858C2.41814 8.65502 2.68302 5.62739 4.71378 3.92338C6.74454 2.21937 9.77217 2.48426 11.4762 4.51502Z" fill="#BFBFBF"/>
</svg>
